# File created by Blade
# Date/Time:  Tue Jan 27 19:23:26 2015
#---------------------------------------------------------
:version 1.10
:name HOM
:units
  mass 1.0
  length 1.000000
  angle deg
:documentation
     Acclaim Skeleton File
:root
   axis xyz
   order TX TY TZ RX RY RZ
   position 0.000000 0.000000 0.000000
   orientation 0 0 0
:bonedata
   begin
      id 1
      name Spine_dum
      direction 0.000000 1.000000 0.000000
      length 6.116652
      axis 0.0 0.0 0.0 xyz
   end
   begin
      id 2
      name LeftUpLeg_dum
      direction 1.000000 0.000000 0.000000
      length 4.711765
      axis 0.0 0.0 0.0 xyz
   end
   begin
      id 3
      name RightUpLeg_dum
      direction -1.000000 0.000000 0.000000
      length 4.711765
      axis 0.0 0.0 0.0 xyz
   end
   begin
      id 4
      name Spine
      direction 0.000000 1.000000 0.000000
      length 0.000000
      axis 0.0 0.0 0.0 xyz
      dof rx ry rz
   end
   begin
      id 5
      name Spine_dum1
      direction 0.000000 1.000000 0.000000
      length 15.225563
      axis 0.0 0.0 0.0 xyz
   end
   begin
      id 6
      name Spine_dum2
      direction 0.000000 1.000000 0.000000
      length 8.977654
      axis 0.0 0.0 0.0 xyz
   end
   begin
      id 7
      name Spine_dum3
      direction 0.000000 1.000000 0.000000
      length 8.977654
      axis 0.0 0.0 0.0 xyz
   end
   begin
      id 8
      name Head
      direction 0.000000 1.000000 0.000000
      length 4.527550
      axis 0.0 0.0 0.0 xyz
      dof rx ry rz
   end
   begin
      id 9
      name LeftShoulder
      direction 1.000000 0.000000 0.000000
      length 7.110130
      axis 0.0 0.0 -90.0 xyz
      dof rx ry rz
   end
   begin
      id 10
      name LeftArm
      direction 1.000000 0.000000 0.000000
      length 10.398341
      axis 0.0 0.0 -90.0 xyz
      dof rx ry rz
   end
   begin
      id 11
      name LeftForeArm
      direction 1.000000 0.000000 0.000000
      length 8.888997
      axis 0.0 0.0 -90.0 xyz
      dof ry rz rx
   end
   begin
      id 12
      name LeftHand
      direction 0.000000 0.000000 0.000000
      length 0.000000
      axis 0.0 0.0 -90.0 xyz
      dof rx ry rz
   end
   begin
      id 13
      name LeftHand_dum1
      direction 0.000000 0.000000 0.000000
      length 0.000000
      axis 0.0 0.0 -90.0 xyz
   end
   begin
      id 14
      name LeftHand_dum2
      direction 1.000000 0.000000 0.000000
      length 3.937000
      axis 0.0 0.0 -90.0 xyz
   end
   begin
      id 15
      name LeftHandThumb1
      direction 0.000000 0.000000 1.000000
      length 3.937000
      axis 0.0 0.0 -90.0 xyz
      dof rx rz ry
   end
   begin
      id 16
      name RightShoulder
      direction -1.000000 0.000000 0.000000
      length 7.110130
      axis 0.0 0.0 90.0 xyz
      dof rx ry rz
   end
   begin
      id 17
      name RightArm
      direction -1.000000 0.000000 0.000000
      length 10.398341
      axis 0.0 0.0 90.0 xyz
      dof rx ry rz
   end
   begin
      id 18
      name RightForeArm
      direction -1.000000 0.000000 0.000000
      length 8.888997
      axis 0.0 0.0 90.0 xyz
      dof ry rz rx
   end
   begin
      id 19
      name RightHand
      direction 0.000000 0.000000 0.000000
      length 0.000000
      axis 0.0 0.0 90.0 xyz
      dof rx ry rz
   end
   begin
      id 20
      name RightHand_dum1
      direction 0.000000 0.000000 0.000000
      length 0.000000
      axis 0.0 0.0 90.0 xyz
   end
   begin
      id 21
      name RightHand_dum2
      direction -1.000000 0.000000 0.000000
      length 3.937000
      axis 0.0 0.0 90.0 xyz
   end
   begin
      id 22
      name RightHandThumb1
      direction 0.000000 0.000000 1.000000
      length 3.937000
      axis 0.0 0.0 90.0 xyz
      dof rx rz ry
   end
   begin
      id 23
      name LeftUpLeg
      direction 0.000000 -1.000000 0.000000
      length 15.510451
      axis 0.0 0.0 0.0 xyz
      dof rx ry rz
   end
   begin
      id 24
      name LeftLeg
      direction 0.000000 -1.000000 0.000000
      length 14.858061
      axis 0.0 0.0 0.0 xyz
      dof rx ry rz
   end
   begin
      id 25
      name LeftFoot
      direction 0.000000 -0.258819 0.965926
      length 5.128852
      axis 15.0 0.0 0.0 xyz
      dof rx ry rz
   end
   begin
      id 26
      name LeftToeBase
      direction 0.000000 0.000000 1.000000
      length 2.952750
      axis 0.0 0.0 0.0 xyz
      dof rx ry rz
   end
   begin
      id 27
      name RightUpLeg
      direction 0.000000 -1.000000 0.000000
      length 15.510451
      axis 0.0 0.0 0.0 xyz
      dof rx ry rz
   end
   begin
      id 28
      name RightLeg
      direction 0.000000 -1.000000 0.000000
      length 14.858061
      axis 0.0 0.0 0.0 xyz
      dof rx ry rz
   end
   begin
      id 29
      name RightFoot
      direction 0.000000 -0.258819 0.965926
      length 5.128852
      axis 15.0 0.0 0.0 xyz
      dof rx ry rz
   end
   begin
      id 30
      name RightToeBase
      direction 0.000000 0.000000 1.000000
      length 2.952750
      axis 0.0 0.0 0.0 xyz
      dof rx ry rz
   end
:hierarchy
   begin
      root Spine_dum LeftUpLeg_dum RightUpLeg_dum
      Spine_dum Spine
      LeftUpLeg_dum LeftUpLeg
      RightUpLeg_dum RightUpLeg
      Spine Spine_dum1 Spine_dum2 Spine_dum3
      Spine_dum1 Head
      Spine_dum2 LeftShoulder
      Spine_dum3 RightShoulder
      LeftShoulder LeftArm
      LeftArm LeftForeArm
      LeftForeArm LeftHand
      LeftHand LeftHand_dum1 LeftHand_dum2
      LeftHand_dum1 LeftHandThumb1
      RightShoulder RightArm
      RightArm RightForeArm
      RightForeArm RightHand
      RightHand RightHand_dum1 RightHand_dum2
      RightHand_dum1 RightHandThumb1
      LeftUpLeg LeftLeg
      LeftLeg LeftFoot
      LeftFoot LeftToeBase
      RightUpLeg RightLeg
      RightLeg RightFoot
      RightFoot RightToeBase
   end

# File created by Blade
# Date/Time:  Tue Jan 27 19:23:16 2015
# Frame Rate: 120.000 fps
#------------------------------------------------------
:FULLY-SPECIFIED
:DEGREES
411
root 4.308644 32.280956 0.633128 -2.806877 24.415664 3.499595
Spine -0.970603 29.289688 -0.324514
Head 3.716886 -38.219563 0.917570
LeftShoulder -4.181808 -9.339445 23.702817
LeftArm -4.240451 45.748308 -103.480782
LeftForeArm 3.944368 -0.000000 13.990662
LeftHand 10.264261 0.000000 -8.317905
LeftHandThumb1 -26.253704 0.000000 33.147579
RightShoulder 0.440752 27.239483 -45.038594
RightArm 55.858869 5.115914 123.165392
RightForeArm 33.404071 -0.000000 107.800685
RightHand 25.939352 -0.000000 -13.799624
RightHandThumb1 -24.326973 -0.000000 -32.862282
LeftUpLeg 7.144375 -14.863749 -3.641125
LeftLeg 3.069173 -0.000000 -0.000000
LeftFoot -13.151815 7.838039 -21.375572
LeftToeBase 16.884004 -0.000000 -0.000000
RightUpLeg 15.239920 -24.035002 -3.615810
RightLeg -2.579771 -0.000000 0.000000
RightFoot -16.856890 -19.559165 17.790801
RightToeBase 10.453635 -0.000000 -0.000000
412
root 4.310641 32.280669 0.631074 -2.816335 24.406146 3.497926
Spine -0.962140 29.294526 -0.323037
Head 3.730963 -38.219064 0.926580
LeftShoulder -4.178910 -9.307414 23.698764
LeftArm -4.206948 45.791240 -103.453407
LeftForeArm 3.984824 -0.000000 13.968036
LeftHand 10.265254 -0.000000 -8.361643
LeftHandThumb1 -26.253704 0.000000 33.147579
RightShoulder 0.438402 27.190328 -45.026300
RightArm 55.857739 5.138910 123.132180
RightForeArm 33.285456 -0.000000 107.826406
RightHand 25.939922 -0.000000 -14.120453
RightHandThumb1 -24.326973 -0.000000 -32.862282
LeftUpLeg 7.158365 -14.855446 -3.644793
LeftLeg 3.047486 -0.000000 -0.000000
LeftFoot -13.181088 7.849951 -21.459311
LeftToeBase 16.997667 -0.000000 -0.000000
RightUpLeg 15.242227 -24.028248 -3.623312
RightLeg -2.571885 -0.000000 0.000000
RightFoot -16.863854 -19.550164 17.798787
RightToeBase 10.511576 -0.000000 -0.000000
413
root 4.310446 32.280270 0.626916 -2.824381 24.413047 3.496161
Spine -0.944233 29.282642 -0.322978
Head 3.735678 -38.213739 0.941356
LeftShoulder -4.171183 -9.335774 23.694551
LeftArm -4.247621 45.834752 -103.471699
LeftForeArm 3.943045 -0.000000 13.943806
LeftHand 10.313957 0.000000 -8.602967
LeftHandThumb1 -26.253704 0.000000 33.147579
RightShoulder 0.416827 27.149403 -45.007169
RightArm 55.859590 5.143815 123.094133
RightForeArm 33.313200 -0.000000 107.814714
RightHand 26.025245 -0.000000 -14.126838
RightHandThumb1 -24.326973 -0.000000 -32.862282
LeftUpLeg 7.150336 -14.868882 -3.645531
LeftLeg 3.071127 -0.000000 -0.000000
LeftFoot -13.161404 7.787547 -21.436849
LeftToeBase 17.286647 -0.000000 -0.000000
RightUpLeg 15.240707 -24.042202 -3.626245
RightLeg -2.563615 -0.000000 0.000000
RightFoot -16.864842 -19.551130 17.790860
RightToeBase 10.397434 -0.000000 -0.000000
414
root 4.312246 32.280245 0.624790 -2.830458 24.406833 3.495014
Spine -0.936641 29.262443 -0.322018
Head 3.747502 -38.201438 0.945242
LeftShoulder -4.186965 -9.311030 23.697070
LeftArm -4.257289 45.853407 -103.467611
LeftForeArm 4.073403 0.000000 13.945542
LeftHand 10.278376 -0.000000 -8.187414
LeftHandThumb1 -26.253704 0.000000 33.147579
RightShoulder 0.397810 27.082045 -45.001076
RightArm 55.878022 5.118906 123.083510
RightForeArm 33.388710 -0.000000 107.812251
RightHand 25.988726 -0.000000 -14.144202
RightHandThumb1 -24.326973 -0.000000 -32.862282
LeftUpLeg 7.154562 -14.850966 -3.648598
LeftLeg 3.070312 -0.000000 -0.000000
LeftFoot -13.146586 7.782332 -21.406046
LeftToeBase 17.301200 -0.000000 -0.000000
RightUpLeg 15.239607 -24.029086 -3.627765
RightLeg -2.558862 -0.000000 0.000000
RightFoot -16.867002 -19.564688 17.795322
RightToeBase 10.464548 -0.000000 -0.000000
415
root 4.317044 32.280790 0.623049 -2.839534 24.389071 3.488558
Spine -0.928278 29.254944 -0.290277
Head 3.749305 -38.290933 0.932990
LeftShoulder -4.189901 -9.281507 23.668437
LeftArm -4.283230 45.853989 -103.455799
LeftForeArm 4.106761 -0.000000 13.956033
LeftHand 10.291941 -0.000000 -8.166518
LeftHandThumb1 -26.253704 0.000000 33.147579
RightShoulder 0.390122 27.047424 -45.005986
RightArm 55.862916 5.106587 123.091144
RightForeArm 33.394573 -0.000000 107.755730
RightHand 26.112363 0.000000 -13.985458
RightHandThumb1 -24.326973 -0.000000 -32.862282
LeftUpLeg 7.167037 -14.873262 -3.661327
LeftLeg 3.069618 -0.000000 -0.000000
LeftFoot -13.216670 7.835189 -21.485013
LeftToeBase 17.475523 -0.000000 -0.000000
RightUpLeg 15.250188 -24.026875 -3.635524
RightLeg -2.572019 -0.000000 0.000000
RightFoot -16.848981 -19.558785 17.794058
RightToeBase 10.395617 -0.000000 -0.000000
416
root 4.317433 32.280508 0.619671 -2.843927 24.400783 3.493202
Spine -0.914550 29.236503 -0.313044
Head 3.789269 -38.191855 0.918238
LeftShoulder -4.183888 -9.253570 23.696706
LeftArm -4.262129 45.828546 -103.449879
LeftForeArm 4.108788 -0.000000 13.943334
LeftHand 10.383945 -0.000000 -8.329316
LeftHandThumb1 -26.253704 0.000000 33.147579
RightShoulder 0.363019 27.057503 -44.979334
RightArm 55.808481 5.122194 123.067182
RightForeArm 33.549248 -0.000000 107.756102
RightHand 25.917775 -0.000000 -13.688431
RightHandThumb1 -24.326973 -0.000000 -32.862282
LeftUpLeg 7.154429 -14.851745 -3.662415
LeftLeg 3.084172 -0.000000 -0.000000
LeftFoot -13.203241 7.832118 -21.485644
LeftToeBase 17.117258 -0.000000 -0.000000
RightUpLeg 15.256005 -24.052148 -3.648747
RightLeg -2.571819 -0.000000 0.000000
RightFoot -16.854623 -19.546282 17.805880
RightToeBase 10.420169 -0.000000 -0.000000
